<?xml version="1.0" encoding="UTF-8" standalone="yes"?>
<svg xmlns="http://www.w3.org/2000/svg" xmlns:xlink="http://www.w3.org/1999/xlink" width="32px" height="32px" viewBox="0 0 32 32" version="1.1" fill="#000000">
  <g id="surface354308">
    <path style=" stroke:none;fill-rule:nonzero;fill:#000000;fill-opacity:1;" d="M 15 1 L 10 6 L 14 6 L 14 12 L 16 12 L 16 6 L 20 6 Z M 6 10 L 1 15 L 6 20 L 6 16 L 12 16 L 12 14 L 6 14 Z M 24 10 L 24 14 L 18 14 L 18 16 L 24 16 L 24 20 L 29 15 Z M 14 18 L 14 24 L 10 24 L 15 29 L 20 24 L 16 24 L 16 18 Z M 14 18 "/>
  </g>
</svg>
