<?xml version="1.0" encoding="UTF-8" standalone="no"?>
<!DOCTYPE svg PUBLIC "-//W3C//DTD SVG 1.1//EN" "http://www.w3.org/Graphics/SVG/1.1/DTD/svg11.dtd">
<svg version="1.1" xmlns="http://www.w3.org/2000/svg" xmlns:xlink="http://www.w3.org/1999/xlink" preserveAspectRatio="xMidYMid meet" viewBox="224.0000000000001 124.00000000000006 204 203.99999999999994" width="200" height="200"><defs><path d="M425 270L415.44 289.34C411.06 296.14 408.32 300.39 407.23 302.09C403.26 308.23 398.02 313.46 391.86 317.4C390.28 318.42 386.32 320.95 380 325L225 325L225 125L425 125L425 270Z" id="a2XuCPR62v"></path><path d="M377.42 309.3C377.42 300.28 378.66 287.64 381.15 271.36C381.15 271.36 381.15 271.36 381.15 271.36C394.12 276.11 408.34 276.19 421.36 271.59C421.85 271.41 423.06 270.99 425 270.3C418.56 283.42 412.31 294.47 406.24 303.45C400.18 312.43 391.37 319.62 379.82 325C378.22 323.55 377.42 318.32 377.42 309.3Z" id="c8SEV4Eiy"></path><path d="M225 125L425 125L424.6 164.3L225 164.3L225 125Z" id="f57cOhVVV5"></path></defs><g><g><use xlink:href="#a2XuCPR62v" opacity="1" fill="#ffffff" fill-opacity="1"></use><g><use xlink:href="#a2XuCPR62v" opacity="1" fill-opacity="0" stroke="#000000" stroke-width="1" stroke-opacity="1"></use></g></g><g><use xlink:href="#c8SEV4Eiy" opacity="1" fill="#acacac" fill-opacity="0.44"></use><g><use xlink:href="#c8SEV4Eiy" opacity="1" fill-opacity="0" stroke="#000000" stroke-width="1" stroke-opacity="1"></use></g></g><g><use xlink:href="#f57cOhVVV5" opacity="1" fill="#d2d2d2" fill-opacity="0.38"></use></g></g></svg>